<svg xmlns="http://www.w3.org/2000/svg" viewBox="0 0 4000 800">
<rect width="100%" height="100%" fill="#111827"/>
<style>
  .node { fill: #1F2937; stroke: #10B981; stroke-width: 2; }
  .line { stroke: #10B981; stroke-width: 2; }
  .text { font-family: Consolas, monospace; font-size: 13px; text-anchor: middle; fill: #ffffff; }
</style>
    <line x1="2000" y1="75" x2="1000" y2="115" class="line" />
    <line x1="1000" y1="165" x2="500" y2="205" class="line" />
    <line x1="500" y1="255" x2="250" y2="295" class="line" />
    <line x1="250" y1="345" x2="125" y2="385" class="line" />
    <line x1="125" y1="435" x2="62" y2="475" class="line" />
    <line x1="250" y1="345" x2="375" y2="385" class="line" />
    <line x1="375" y1="435" x2="312" y2="475" class="line" />
    <line x1="375" y1="435" x2="437" y2="475" class="line" />
    <line x1="500" y1="255" x2="750" y2="295" class="line" />
    <line x1="750" y1="345" x2="625" y2="385" class="line" />
    <line x1="625" y1="435" x2="562" y2="475" class="line" />
    <line x1="625" y1="435" x2="687" y2="475" class="line" />
    <line x1="750" y1="345" x2="875" y2="385" class="line" />
    <line x1="875" y1="435" x2="812" y2="475" class="line" />
    <line x1="875" y1="435" x2="937" y2="475" class="line" />
    <line x1="1000" y1="165" x2="1500" y2="205" class="line" />
    <line x1="1500" y1="255" x2="1250" y2="295" class="line" />
    <line x1="1250" y1="345" x2="1375" y2="385" class="line" />
    <line x1="1375" y1="435" x2="1437" y2="475" class="line" />
    <line x1="1500" y1="255" x2="1750" y2="295" class="line" />
    <line x1="1750" y1="345" x2="1625" y2="385" class="line" />
    <line x1="1625" y1="435" x2="1562" y2="475" class="line" />
    <line x1="1625" y1="435" x2="1687" y2="475" class="line" />
    <line x1="1750" y1="345" x2="1875" y2="385" class="line" />
    <line x1="1875" y1="435" x2="1937" y2="475" class="line" />
    <line x1="2000" y1="75" x2="3000" y2="115" class="line" />
    <line x1="3000" y1="165" x2="2500" y2="205" class="line" />
    <line x1="2500" y1="255" x2="2250" y2="295" class="line" />
    <line x1="2250" y1="345" x2="2125" y2="385" class="line" />
    <line x1="2125" y1="435" x2="2062" y2="475" class="line" />
    <line x1="2250" y1="345" x2="2375" y2="385" class="line" />
    <line x1="2375" y1="435" x2="2437" y2="475" class="line" />
    <line x1="2500" y1="255" x2="2750" y2="295" class="line" />
    <line x1="2750" y1="345" x2="2625" y2="385" class="line" />
    <line x1="2625" y1="435" x2="2562" y2="475" class="line" />
    <line x1="2625" y1="435" x2="2687" y2="475" class="line" />
    <line x1="2750" y1="345" x2="2875" y2="385" class="line" />
    <line x1="3000" y1="165" x2="3500" y2="205" class="line" />
    <line x1="3500" y1="255" x2="3250" y2="295" class="line" />
    <line x1="3250" y1="345" x2="3125" y2="385" class="line" />
    <line x1="3125" y1="435" x2="3187" y2="475" class="line" />
    <line x1="3250" y1="345" x2="3375" y2="385" class="line" />
    <line x1="3375" y1="435" x2="3312" y2="475" class="line" />
    <line x1="3375" y1="435" x2="3437" y2="475" class="line" />
    <line x1="3500" y1="255" x2="3750" y2="295" class="line" />
    <line x1="3750" y1="345" x2="3625" y2="385" class="line" />
    <line x1="3625" y1="435" x2="3562" y2="475" class="line" />
    <line x1="3750" y1="345" x2="3875" y2="385" class="line" />
    <line x1="3875" y1="435" x2="3937" y2="475" class="line" />
    <rect x="1940" y="25" width="120" height="55" rx="8" class="node" />
    <text x="2000" y="42" class="text" style="fill:#A7F3D0">ID: 203</text>
    <text x="2000" y="57" class="text">Diclofenaco (g</text>
    <text x="2000" y="72" class="text" style="fill:#FCD34D">Cant: 15</text>
    <rect x="940" y="115" width="120" height="55" rx="8" class="node" />
    <text x="1000" y="132" class="text" style="fill:#A7F3D0">ID: 132</text>
    <text x="1000" y="147" class="text">Aspirina (tabl</text>
    <text x="1000" y="162" class="text" style="fill:#FCD34D">Cant: 25</text>
    <rect x="440" y="205" width="120" height="55" rx="8" class="node" />
    <text x="500" y="222" class="text" style="fill:#A7F3D0">ID: 104</text>
    <text x="500" y="237" class="text">Atun en lata (</text>
    <text x="500" y="252" class="text" style="fill:#FCD34D">Cant: 100</text>
    <rect x="190" y="295" width="120" height="55" rx="8" class="node" />
    <text x="250" y="312" class="text" style="fill:#A7F3D0">ID: 118</text>
    <text x="250" y="327" class="text">Sopa deshidrat</text>
    <text x="250" y="342" class="text" style="fill:#FCD34D">Cant: 50</text>
    <rect x="65" y="385" width="120" height="55" rx="8" class="node" />
    <text x="125" y="402" class="text" style="fill:#A7F3D0">ID: 125</text>
    <text x="125" y="417" class="text">Jugo de caja (</text>
    <text x="125" y="432" class="text" style="fill:#FCD34D">Cant: 40</text>
    <rect x="2" y="475" width="120" height="55" rx="8" class="node" />
    <text x="62" y="492" class="text" style="fill:#A7F3D0">ID: 101</text>
    <text x="62" y="507" class="text">Arroz_Blanco (</text>
    <text x="62" y="522" class="text" style="fill:#FCD34D">Cant: 50</text>
    <rect x="315" y="385" width="120" height="55" rx="8" class="node" />
    <text x="375" y="402" class="text" style="fill:#A7F3D0">ID: 205</text>
    <text x="375" y="417" class="text">Sopa enlatada </text>
    <text x="375" y="432" class="text" style="fill:#FCD34D">Cant: 40</text>
    <rect x="252" y="475" width="120" height="55" rx="8" class="node" />
    <text x="312" y="492" class="text" style="fill:#A7F3D0">ID: 117</text>
    <text x="312" y="507" class="text">Galletas de so</text>
    <text x="312" y="522" class="text" style="fill:#FCD34D">Cant: 70</text>
    <rect x="377" y="475" width="120" height="55" rx="8" class="node" />
    <text x="437" y="492" class="text" style="fill:#A7F3D0">ID: 181</text>
    <text x="437" y="507" class="text">Comida para be</text>
    <text x="437" y="522" class="text" style="fill:#FCD34D">Cant: 30</text>
    <rect x="690" y="295" width="120" height="55" rx="8" class="node" />
    <text x="750" y="312" class="text" style="fill:#A7F3D0">ID: 144</text>
    <text x="750" y="327" class="text">Acetaminofen g</text>
    <text x="750" y="342" class="text" style="fill:#FCD34D">Cant: 10</text>
    <rect x="565" y="385" width="120" height="55" rx="8" class="node" />
    <text x="625" y="402" class="text" style="fill:#A7F3D0">ID: 143</text>
    <text x="625" y="417" class="text">Nitroglicerina</text>
    <text x="625" y="432" class="text" style="fill:#FCD34D">Cant: 5</text>
    <rect x="502" y="475" width="120" height="55" rx="8" class="node" />
    <text x="562" y="492" class="text" style="fill:#A7F3D0">ID: 139</text>
    <text x="562" y="507" class="text">Antiacido mast</text>
    <text x="562" y="522" class="text" style="fill:#FCD34D">Cant: 15</text>
    <rect x="627" y="475" width="120" height="55" rx="8" class="node" />
    <text x="687" y="492" class="text" style="fill:#A7F3D0">ID: 105</text>
    <text x="687" y="507" class="text">Sardinas en la</text>
    <text x="687" y="522" class="text" style="fill:#FCD34D">Cant: 80</text>
    <rect x="815" y="385" width="120" height="55" rx="8" class="node" />
    <text x="875" y="402" class="text" style="fill:#A7F3D0">ID: 133</text>
    <text x="875" y="417" class="text">Loperamida (ca</text>
    <text x="875" y="432" class="text" style="fill:#FCD34D">Cant: 20</text>
    <rect x="752" y="475" width="120" height="55" rx="8" class="node" />
    <text x="812" y="492" class="text" style="fill:#A7F3D0">ID: 127</text>
    <text x="812" y="507" class="text">Paracetamol (t</text>
    <text x="812" y="522" class="text" style="fill:#FCD34D">Cant: 30</text>
    <rect x="877" y="475" width="120" height="55" rx="8" class="node" />
    <text x="937" y="492" class="text" style="fill:#A7F3D0">ID: 119</text>
    <text x="937" y="507" class="text">Cafe molido (p</text>
    <text x="937" y="522" class="text" style="fill:#FCD34D">Cant: 10</text>
    <rect x="1440" y="205" width="120" height="55" rx="8" class="node" />
    <text x="1500" y="222" class="text" style="fill:#A7F3D0">ID: 160</text>
    <text x="1500" y="237" class="text">Jeringas ester</text>
    <text x="1500" y="252" class="text" style="fill:#FCD34D">Cant: 8</text>
    <rect x="1190" y="295" width="120" height="55" rx="8" class="node" />
    <text x="1250" y="312" class="text" style="fill:#A7F3D0">ID: 106</text>
    <text x="1250" y="327" class="text">Maiz dulce en </text>
    <text x="1250" y="342" class="text" style="fill:#FCD34D">Cant: 50</text>
    <rect x="1315" y="385" width="120" height="55" rx="8" class="node" />
    <text x="1375" y="402" class="text" style="fill:#A7F3D0">ID: 135</text>
    <text x="1375" y="417" class="text">Difenhidramina</text>
    <text x="1375" y="432" class="text" style="fill:#FCD34D">Cant: 10</text>
    <rect x="1377" y="475" width="120" height="55" rx="8" class="node" />
    <text x="1437" y="492" class="text" style="fill:#A7F3D0">ID: 159</text>
    <text x="1437" y="507" class="text">Jeringas ester</text>
    <text x="1437" y="522" class="text" style="fill:#FCD34D">Cant: 10</text>
    <rect x="1690" y="295" width="120" height="55" rx="8" class="node" />
    <text x="1750" y="312" class="text" style="fill:#A7F3D0">ID: 141</text>
    <text x="1750" y="327" class="text">Metformina (ta</text>
    <text x="1750" y="342" class="text" style="fill:#FCD34D">Cant: 10</text>
    <rect x="1565" y="385" width="120" height="55" rx="8" class="node" />
    <text x="1625" y="402" class="text" style="fill:#A7F3D0">ID: 126</text>
    <text x="1625" y="417" class="text">Amoxicilina (c</text>
    <text x="1625" y="432" class="text" style="fill:#FCD34D">Cant: 20</text>
    <rect x="1502" y="475" width="120" height="55" rx="8" class="node" />
    <text x="1562" y="492" class="text" style="fill:#A7F3D0">ID: 111</text>
    <text x="1562" y="507" class="text">Formula infant</text>
    <text x="1562" y="522" class="text" style="fill:#FCD34D">Cant: 15</text>
    <rect x="1627" y="475" width="120" height="55" rx="8" class="node" />
    <text x="1687" y="492" class="text" style="fill:#A7F3D0">ID: 128</text>
    <text x="1687" y="507" class="text">Ibuprofeno (ta</text>
    <text x="1687" y="522" class="text" style="fill:#FCD34D">Cant: 25</text>
    <rect x="1815" y="385" width="120" height="55" rx="8" class="node" />
    <text x="1875" y="402" class="text" style="fill:#A7F3D0">ID: 110</text>
    <text x="1875" y="417" class="text">Leche en polvo</text>
    <text x="1875" y="432" class="text" style="fill:#FCD34D">Cant: 25</text>
    <rect x="1877" y="475" width="120" height="55" rx="8" class="node" />
    <text x="1937" y="492" class="text" style="fill:#A7F3D0">ID: 140</text>
    <text x="1937" y="507" class="text">Enalapril (tab</text>
    <text x="1937" y="522" class="text" style="fill:#FCD34D">Cant: 10</text>
    <rect x="2940" y="115" width="120" height="55" rx="8" class="node" />
    <text x="3000" y="132" class="text" style="fill:#A7F3D0">ID: 152</text>
    <text x="3000" y="147" class="text">Agua oxigenada</text>
    <text x="3000" y="162" class="text" style="fill:#FCD34D">Cant: 25</text>
    <rect x="2440" y="205" width="120" height="55" rx="8" class="node" />
    <text x="2500" y="222" class="text" style="fill:#A7F3D0">ID: 123</text>
    <text x="2500" y="237" class="text">Agua embotella</text>
    <text x="2500" y="252" class="text" style="fill:#FCD34D">Cant: 30</text>
    <rect x="2190" y="295" width="120" height="55" rx="8" class="node" />
    <text x="2250" y="312" class="text" style="fill:#A7F3D0">ID: 209</text>
    <text x="2250" y="327" class="text">Insulina (vial</text>
    <text x="2250" y="342" class="text" style="fill:#FCD34D">Cant: 5</text>
    <rect x="2065" y="385" width="120" height="55" rx="8" class="node" />
    <text x="2125" y="402" class="text" style="fill:#A7F3D0">ID: 129</text>
    <text x="2125" y="417" class="text">Metronidazol (</text>
    <text x="2125" y="432" class="text" style="fill:#FCD34D">Cant: 15</text>
    <rect x="2002" y="475" width="120" height="55" rx="8" class="node" />
    <text x="2062" y="492" class="text" style="fill:#A7F3D0">ID: 102</text>
    <text x="2062" y="507" class="text">Frijoles negro</text>
    <text x="2062" y="522" class="text" style="fill:#FCD34D">Cant: 40</text>
    <rect x="2315" y="385" width="120" height="55" rx="8" class="node" />
    <text x="2375" y="402" class="text" style="fill:#A7F3D0">ID: 121</text>
    <text x="2375" y="417" class="text">Agua embotella</text>
    <text x="2375" y="432" class="text" style="fill:#FCD34D">Cant: 120</text>
    <rect x="2377" y="475" width="120" height="55" rx="8" class="node" />
    <text x="2437" y="492" class="text" style="fill:#A7F3D0">ID: 122</text>
    <text x="2437" y="507" class="text">Agua embotella</text>
    <text x="2437" y="522" class="text" style="fill:#FCD34D">Cant: 100</text>
    <rect x="2690" y="295" width="120" height="55" rx="8" class="node" />
    <text x="2750" y="312" class="text" style="fill:#A7F3D0">ID: 109</text>
    <text x="2750" y="327" class="text">Avena en hojue</text>
    <text x="2750" y="342" class="text" style="fill:#FCD34D">Cant: 45</text>
    <rect x="2565" y="385" width="120" height="55" rx="8" class="node" />
    <text x="2625" y="402" class="text" style="fill:#A7F3D0">ID: 148</text>
    <text x="2625" y="417" class="text">Venda elastica</text>
    <text x="2625" y="432" class="text" style="fill:#FCD34D">Cant: 15</text>
    <rect x="2502" y="475" width="120" height="55" rx="8" class="node" />
    <text x="2562" y="492" class="text" style="fill:#A7F3D0">ID: 207</text>
    <text x="2562" y="507" class="text">Toallitas limp</text>
    <text x="2562" y="522" class="text" style="fill:#FCD34D">Cant: 20</text>
    <rect x="2627" y="475" width="120" height="55" rx="8" class="node" />
    <text x="2687" y="492" class="text" style="fill:#A7F3D0">ID: 167</text>
    <text x="2687" y="507" class="text">Toallitas hume</text>
    <text x="2687" y="522" class="text" style="fill:#FCD34D">Cant: 40</text>
    <rect x="2815" y="385" width="120" height="55" rx="8" class="node" />
    <text x="2875" y="402" class="text" style="fill:#A7F3D0">ID: 134</text>
    <text x="2875" y="417" class="text">Sales de rehid</text>
    <text x="2875" y="432" class="text" style="fill:#FCD34D">Cant: 50</text>
    <rect x="3440" y="205" width="120" height="55" rx="8" class="node" />
    <text x="3500" y="222" class="text" style="fill:#A7F3D0">ID: 151</text>
    <text x="3500" y="237" class="text">Alcohol isopro</text>
    <text x="3500" y="252" class="text" style="fill:#FCD34D">Cant: 20</text>
    <rect x="3190" y="295" width="120" height="55" rx="8" class="node" />
    <text x="3250" y="312" class="text" style="fill:#A7F3D0">ID: 156</text>
    <text x="3250" y="327" class="text">Guantes de nit</text>
    <text x="3250" y="342" class="text" style="fill:#FCD34D">Cant: 10</text>
    <rect x="3065" y="385" width="120" height="55" rx="8" class="node" />
    <text x="3125" y="402" class="text" style="fill:#A7F3D0">ID: 108</text>
    <text x="3125" y="417" class="text">Lentejas (bols</text>
    <text x="3125" y="432" class="text" style="fill:#FCD34D">Cant: 30</text>
    <rect x="3127" y="475" width="120" height="55" rx="8" class="node" />
    <text x="3187" y="492" class="text" style="fill:#A7F3D0">ID: 130</text>
    <text x="3187" y="507" class="text">Omeprazol (cap</text>
    <text x="3187" y="522" class="text" style="fill:#FCD34D">Cant: 20</text>
    <rect x="3315" y="385" width="120" height="55" rx="8" class="node" />
    <text x="3375" y="402" class="text" style="fill:#A7F3D0">ID: 147</text>
    <text x="3375" y="417" class="text">Vendas de gasa</text>
    <text x="3375" y="432" class="text" style="fill:#FCD34D">Cant: 25</text>
    <rect x="3252" y="475" width="120" height="55" rx="8" class="node" />
    <text x="3312" y="492" class="text" style="fill:#A7F3D0">ID: 124</text>
    <text x="3312" y="507" class="text">Suero oral en </text>
    <text x="3312" y="522" class="text" style="fill:#FCD34D">Cant: 60</text>
    <rect x="3377" y="475" width="120" height="55" rx="8" class="node" />
    <text x="3437" y="492" class="text" style="fill:#A7F3D0">ID: 145</text>
    <text x="3437" y="507" class="text">Ivermectina (t</text>
    <text x="3437" y="522" class="text" style="fill:#FCD34D">Cant: 15</text>
    <rect x="3690" y="295" width="120" height="55" rx="8" class="node" />
    <text x="3750" y="312" class="text" style="fill:#A7F3D0">ID: 142</text>
    <text x="3750" y="327" class="text">Inhalador Salb</text>
    <text x="3750" y="342" class="text" style="fill:#FCD34D">Cant: 8</text>
    <rect x="3565" y="385" width="120" height="55" rx="8" class="node" />
    <text x="3625" y="402" class="text" style="fill:#A7F3D0">ID: 165</text>
    <text x="3625" y="417" class="text">Pañales para </text>
    <text x="3625" y="432" class="text" style="fill:#FCD34D">Cant: 30</text>
    <rect x="3502" y="475" width="120" height="55" rx="8" class="node" />
    <text x="3562" y="492" class="text" style="fill:#A7F3D0">ID: 103</text>
    <text x="3562" y="507" class="text">Pasta espaguet</text>
    <text x="3562" y="522" class="text" style="fill:#FCD34D">Cant: 60</text>
    <rect x="3815" y="385" width="120" height="55" rx="8" class="node" />
    <text x="3875" y="402" class="text" style="fill:#A7F3D0">ID: 136</text>
    <text x="3875" y="417" class="text">Vitamina C (ta</text>
    <text x="3875" y="432" class="text" style="fill:#FCD34D">Cant: 20</text>
    <rect x="3877" y="475" width="120" height="55" rx="8" class="node" />
    <text x="3937" y="492" class="text" style="fill:#A7F3D0">ID: 168</text>
    <text x="3937" y="507" class="text">Alcohol en gel</text>
    <text x="3937" y="522" class="text" style="fill:#FCD34D">Cant: 25</text>
</svg>
